<?xml version="1.0" standalone="no"?>
<!DOCTYPE svg PUBLIC "-//W3C//DTD SVG 20010904//EN"
 "http://www.w3.org/TR/2001/REC-SVG-20010904/DTD/svg10.dtd">
<svg version="1.0" xmlns="http://www.w3.org/2000/svg"
 width="200.000000pt" height="200.000000pt" viewBox="0 0 200.000000 200.000000"
 preserveAspectRatio="xMidYMid meet">
<metadata>
Created by potrace 1.14, written by Peter Selinger 2001-2017
</metadata>
<g transform="translate(0.000000,200.000000) scale(0.100000,-0.100000)"
fill="#000000" stroke="none">
<path d="M905 1894 c-181 -26 -327 -85 -462 -191 -75 -58 -76 -56 78 -108
l110 -37 57 30 c125 66 287 92 431 68 54 -9 163 -49 211 -78 l35 -20 127 43
c146 50 144 45 33 124 -105 75 -253 139 -370 160 -43 8 -215 14 -250 9z"/>
<path d="M3 1282 l2 -397 350 -2 c193 -1 353 -2 356 -2 4 -1 7 -11 7 -24 0
-21 -14 -28 -117 -66 -64 -23 -169 -63 -233 -87 -65 -24 -120 -44 -123 -44 -3
0 -5 20 -5 45 0 25 -4 45 -10 45 -10 0 -108 -35 -155 -55 -16 -7 -40 -16 -52
-19 -22 -7 -22 -10 -22 -180 l0 -174 167 58 c290 101 756 269 771 278 12 7 15
63 15 341 1 183 -1 336 -4 340 -7 10 -323 122 -328 116 -2 -2 -5 -58 -6 -125
l-1 -121 51 -16 c44 -13 50 -19 50 -42 l0 -27 -235 1 -236 0 -3 108 -2 107 27
-6 c16 -4 38 -11 51 -15 l23 -9 -3 127 -3 127 -95 33 c-52 18 -115 40 -140 49
-25 9 -57 20 -72 24 l-27 8 2 -396z"/>
<path d="M1900 1648 c-277 -99 -341 -122 -500 -178 -241 -85 -344 -123 -349
-127 -3 -2 -5 -30 -7 -63 l-2 -60 37 -1 c20 0 101 -1 181 -1 l146 1 154 54
c85 30 165 58 177 61 21 7 21 5 20 -102 l-1 -109 -346 0 c-191 0 -351 -2 -356
-6 -6 -3 -9 -98 -8 -229 2 -254 1 -238 15 -238 10 0 103 -33 599 -210 140 -50
274 -98 298 -105 l42 -13 0 234 0 235 -122 -3 -123 -3 0 -62 c0 -35 -3 -63 -7
-63 -4 0 -19 5 -35 11 -77 30 -191 72 -218 79 -16 5 -70 24 -120 43 -83 31
-90 36 -93 63 l-3 29 360 -2 361 -1 -1 399 c0 219 -3 399 -7 398 -4 0 -45 -14
-92 -31z"/>
<path d="M555 420 c-27 -11 -78 -29 -112 -40 -35 -12 -63 -25 -63 -28 1 -4 26
-27 56 -51 169 -135 374 -204 589 -196 196 6 365 66 515 181 93 70 95 65 -40
112 -65 23 -124 42 -131 42 -6 0 -26 -9 -43 -19 -91 -56 -234 -90 -362 -85
-91 4 -160 23 -263 70 -41 19 -79 34 -85 33 -6 0 -33 -9 -61 -19z"/>
</g>
</svg>
